<svg
    viewBox="0 0 873 200"
    fill="none"
    xmlns="http://www.w3.org/2000/svg"
>
    <path
    d="M137.12 125.88C137.12 129.72 136.88 133.72 136.4 137.88H43.52C44.16 146.2 46.8 152.6 51.44 157.08C56.24 161.4 62.08 163.56 68.96 163.56C79.2 163.56 86.32 159.24 90.32 150.6H134C131.76 159.4 127.68 167.32 121.76 174.36C116 181.4 108.72 186.92 99.92 190.92C91.12 194.92 81.28 196.92 70.4 196.92C57.28 196.92 45.6 194.12 35.36 188.52C25.12 182.92 17.12 174.92 11.36 164.52C5.59997 154.12 2.71997 141.96 2.71997 128.04C2.71997 114.12 5.51997 101.96 11.12 91.56C16.88 81.16 24.88 73.16 35.12 67.56C45.36 61.96 57.12 59.16 70.4 59.16C83.36 59.16 94.88 61.88 104.96 67.32C115.04 72.76 122.88 80.52 128.48 90.6C134.24 100.68 137.12 112.44 137.12 125.88ZM95.12 115.08C95.12 108.04 92.72 102.44 87.92 98.28C83.12 94.12 77.12 92.04 69.92 92.04C63.04 92.04 57.2 94.04 52.4 98.04C47.76 102.04 44.88 107.72 43.76 115.08H95.12Z"
    stroke="white"
    strokeWidth="5"
    />
    <path
    d="M203.411 156.6L232.451 61.08H276.131L228.611 195H177.971L130.451 61.08H174.371L203.411 156.6Z"
    stroke="white"
    strokeWidth="5"
    />
    <path
    d="M305.645 47.16C298.445 47.16 292.525 45.08 287.885 40.92C283.405 36.6 281.165 31.32 281.165 25.08C281.165 18.68 283.405 13.4 287.885 9.24001C292.525 4.92001 298.445 2.76001 305.645 2.76001C312.685 2.76001 318.445 4.92001 322.925 9.24001C327.565 13.4 329.885 18.68 329.885 25.08C329.885 31.32 327.565 36.6 322.925 40.92C318.445 45.08 312.685 47.16 305.645 47.16ZM326.045 61.08V195H285.005V61.08H326.045Z"
    stroke="white"
    strokeWidth="5"
    />
    <path
    d="M405.706 26.52C423.466 26.52 438.986 30.04 452.266 37.08C465.546 44.12 475.786 54.04 482.986 66.84C490.346 79.48 494.026 94.12 494.026 110.76C494.026 127.24 490.346 141.88 482.986 154.68C475.786 167.48 465.466 177.4 452.026 184.44C438.746 191.48 423.306 195 405.706 195H342.586V26.52H405.706ZM403.066 159.48C418.586 159.48 430.666 155.24 439.306 146.76C447.946 138.28 452.266 126.28 452.266 110.76C452.266 95.24 447.946 83.16 439.306 74.52C430.666 65.88 418.586 61.56 403.066 61.56H383.626V159.48H403.066Z"
    stroke="white"
    strokeWidth="5"
    />
    <path
    d="M636.001 125.88C636.001 129.72 635.761 133.72 635.281 137.88H542.401C543.041 146.2 545.681 152.6 550.321 157.08C555.121 161.4 560.961 163.56 567.841 163.56C578.081 163.56 585.201 159.24 589.201 150.6H632.881C630.641 159.4 626.561 167.32 620.641 174.36C614.881 181.4 607.601 186.92 598.801 190.92C590.001 194.92 580.161 196.92 569.281 196.92C556.161 196.92 544.481 194.12 534.241 188.52C524.001 182.92 516.001 174.92 510.241 164.52C504.481 154.12 501.601 141.96 501.601 128.04C501.601 114.12 504.401 101.96 510.001 91.56C515.761 81.16 523.761 73.16 534.001 67.56C544.241 61.96 556.001 59.16 569.281 59.16C582.241 59.16 593.761 61.88 603.841 67.32C613.921 72.76 621.761 80.52 627.361 90.6C633.121 100.68 636.001 112.44 636.001 125.88ZM594.001 115.08C594.001 108.04 591.601 102.44 586.801 98.28C582.001 94.12 576.001 92.04 568.801 92.04C561.921 92.04 556.081 94.04 551.281 98.04C546.641 102.04 543.761 107.72 542.641 115.08H594.001Z"
    stroke="white"
    strokeWidth="5"
    />
    <path
    d="M727.252 59.64C742.932 59.64 755.412 64.76 764.692 75C774.132 85.08 778.852 99 778.852 116.76V195H738.052V122.28C738.052 113.32 735.732 106.36 731.092 101.4C726.452 96.44 720.212 93.96 712.372 93.96C704.532 93.96 698.292 96.44 693.652 101.4C689.012 106.36 686.692 113.32 686.692 122.28V195H645.652V61.08H686.692V78.84C690.852 72.92 696.452 68.28 703.492 64.92C710.532 61.4 718.452 59.64 727.252 59.64Z"
    stroke="white"
    strokeWidth="5"
    />
    <path
    d="M870.011 160.2V195H849.131C834.251 195 822.651 191.4 814.331 184.2C806.011 176.84 801.851 164.92 801.851 148.44V95.16H785.531V61.08H801.851V28.44H842.891V61.08H869.771V95.16H842.891V148.92C842.891 152.92 843.851 155.8 845.771 157.56C847.691 159.32 850.891 160.2 855.371 160.2H870.011Z"
    stroke="white"
    strokeWidth="5"
    />
</svg>